<svg xmlns="http://www.w3.org/2000/svg" viewBox="0 0 512 512" role="img" aria-labelledby="title desc">
  <title id="title">GPA Calculator logo</title>
  <desc id="desc">A clean transparent academic crest with rising grade bars and a clear 4.0 score.</desc>
  <defs>
    <linearGradient id="crest" x1="114" x2="398" y1="78" y2="436" gradientUnits="userSpaceOnUse">
      <stop stop-color="#fff8db"/>
      <stop offset=".45" stop-color="#f5db8f"/>
      <stop offset="1" stop-color="#c78d35"/>
    </linearGradient>
    <linearGradient id="ink" x1="130" x2="370" y1="118" y2="398" gradientUnits="userSpaceOnUse">
      <stop stop-color="#6c2031"/>
      <stop offset="1" stop-color="#32151e"/>
    </linearGradient>
    <filter id="softShadow" x="62" y="54" width="388" height="420" color-interpolation-filters="sRGB" filterUnits="userSpaceOnUse">
      <feDropShadow dx="0" dy="18" flood-color="#000000" flood-opacity=".22" stdDeviation="18"/>
    </filter>
  </defs>
  <g filter="url(#softShadow)">
    <path d="M256 52 401 116v114c0 101-55 178-145 230-90-52-145-129-145-230V116L256 52Z" fill="url(#crest)"/>
    <path d="M256 91 365 139v93c0 77-40 136-109 178-69-42-109-101-109-178v-93l109-48Z" fill="#fffaf0" opacity=".92"/>
    <path d="M170 154 256 116l86 38v76c0 63-31 111-86 148-55-37-86-85-86-148v-76Z" fill="url(#ink)"/>
    <path d="M206 244v-46M256 244v-78M306 244V132" fill="none" stroke="#f5db8f" stroke-linecap="round" stroke-width="24"/>
    <path d="M196 274h120" fill="none" stroke="#fff8db" stroke-linecap="round" stroke-width="18"/>
    <text x="256" y="342" fill="#ffffff" font-family="Georgia, 'Times New Roman', serif" font-size="74" font-weight="700" text-anchor="middle">4.0</text>
  </g>
</svg>
